<mxfile host="app.diagrams.net" modified="2024-05-08T05:41:52.411Z" agent="Mozilla/5.0 (Windows NT 10.0; Win64; x64) AppleWebKit/537.36 (KHTML, like Gecko) Chrome/116.0.0.0 Safari/537.36" version="24.3.1" etag="_2qczkmyee6lTRdOp5G2" type="github">
  <diagram name="第 1 页" id="bqNeuGsDtK-AdpTKibk5">
    <mxGraphModel>
      <root>
        <mxCell id="0" />
        <mxCell id="1" parent="0" />
      </root>
    </mxGraphModel>
  </diagram>
</mxfile>
